# xmcd CD database file
#
# Track frame offsets:
#	150
#	19284
#	33613
#	57480
#	75160
#	100116
#	122182
#	134671
#	145377
#	161265
#	182050
#
# Disc length: 2726 seconds
#
# Revision: 0
# Processed by: cddbd v1.5.2PL0 Copyright (c) Steve Scherf et al.
# Submitted via: CDex 1.70beta3
#
DISCID=950aa40b
DTITLE=ROBERTO TARENZI TRIO - ONE DAY I'LL FLY AWAY
DYEAR=2009
DGENRE=Jazz
TTITLE0=One Aftermoon
TTITLE1=Joshua
TTITLE2=Naxos
TTITLE3=One day I'll fly away
TTITLE4=Bogota
TTITLE5=8(in 7)
TTITLE6=Sonia
TTITLE7=U.Moan
TTITLE8=Watch what happens
TTITLE9=Samba G
TTITLE10=Illusiondelusiondisillusion(Mara's dilemma)
EXTD=YEAR: 2009
EXTT0=
EXTT1=
EXTT2=
EXTT3=
EXTT4=
EXTT5=
EXTT6=
EXTT7=
EXTT8=
EXTT9=
EXTT10=
PLAYORDER=
